<svg xmlns="http://www.w3.org/2000/svg" width="1720" height="634.602" viewBox="0 0 1720 634.602"><defs><style>.a{fill:#fff;}</style></defs><g transform="translate(-100 -163.532)"><path class="a" d="M211.967,151.347c-12.429-.137-21.375,14.611-22.708,26.636-1.612,14.477,1.832,2.776-8.322,2.114-13.459-.867-17.556,18.9-5.042,32.963,3.949,4.436-.006,1.235,51.351,1.247,14.068,0,43.453-1.7,44.543-2.74,23.539-22.218-.766-53.126-24.48-28.789-3.064,3.135,2.144-2.648-2.349-9.2-3.661-5.327-10.335-.858-14.872,3.578-3.48,3.435,7.844-17.589-13-24.979a16.651,16.651,0,0,0-5.125-.825" transform="translate(947.621 12.187)"/><path class="a" d="M524.9,161.063c-13.108.367-22.788,11.753-25.888,24.129-3.1,12.359-.121,14.3-3.046,8.8-6.743-12.754-20.87-14.169-22.624,10.089-.365,5.026,1.221,2.455-5.305-3.421-5.673-5.106-13.894-7.458-20.051-2.777-11.626,8.825-.367,44.442,11.146,42.641,33.124-4.041,101.419,2.809,107.917-7.035,12.908-19.539,1.84-29.052-7.23-24.6-7.878,3.867.767.3-2.486-10.584-2.3-7.717-9.316-7.859-15.669-3.11-8.549,6.389-5.129,6.586-3.985-3.208,1.544-13.169.462-31.312-12.78-30.917" transform="translate(1247.072 260.475)"/><path class="a" d="M178.488,95.51c-18.913-.206-32.522,22.232-34.553,40.524-2.449,22.026,2.79,4.223-12.66,3.217-20.476-1.317-26.709,28.755-7.672,50.151,6.011,6.75,0,1.878,78.125,1.9,21.4,0,66.109-2.59,67.768-4.167,35.816-33.8-1.167-80.828-37.244-43.8-4.662,4.772,3.264-4.026-3.574-14-5.568-8.1-15.724-1.306-22.625,5.442-5.292,5.227,11.933-26.757-19.771-38a25.481,25.481,0,0,0-7.793-1.256" transform="translate(-12.17 605.153)"/></g></svg>