<svg width="29" height="29" viewBox="0 0 29 29" fill="none" xmlns="http://www.w3.org/2000/svg">
<mask id="mask0_184_5375" style="mask-type:luminance" maskUnits="userSpaceOnUse" x="0" y="0" width="29" height="29">
<path d="M28.5 0.5H0.5V28.5H28.5V0.5Z" fill="white"/>
</mask>
<g mask="url(#mask0_184_5375)">
<path d="M14.5 0.5C6.772 0.5 0.5 6.772 0.5 14.5C0.5 22.228 6.772 28.5 14.5 28.5H23.124V25.532C26.4 22.956 28.5 18.98 28.5 14.5C28.5 6.772 22.228 0.5 14.5 0.5ZM9.46 15.76C8.76 15.76 8.2 15.2 8.2 14.5C8.2 13.8 8.76 13.24 9.46 13.24C10.16 13.24 10.72 13.8 10.72 14.5C10.72 15.2 10.16 15.76 9.46 15.76ZM14.5 15.76C13.8 15.76 13.24 15.2 13.24 14.5C13.24 13.8 13.8 13.24 14.5 13.24C15.2 13.24 15.76 13.8 15.76 14.5C15.76 15.2 15.2 15.76 14.5 15.76ZM19.54 15.76C18.84 15.76 18.28 15.2 18.28 14.5C18.28 13.8 18.84 13.24 19.54 13.24C20.24 13.24 20.8 13.8 20.8 14.5C20.8 15.2 20.24 15.76 19.54 15.76Z" fill="#234085"/>
</g>
</svg>
