<?xml version="1.0" encoding="UTF-8"?>
<svg id="Layer_1" xmlns="http://www.w3.org/2000/svg" version="1.1" viewBox="0 0 1024 1024">
  <!-- Generator: Adobe Illustrator 29.8.2, SVG Export Plug-In . SVG Version: 2.1.1 Build 3)  -->
  <defs>
    <style>
      .st0 {
        fill: #fff;
      }
    </style>
  </defs>
  <path class="st0" d="M512,0C229.23,0,0,229.23,0,512s229.23,512,512,512,512-229.23,512-512S794.77,0,512,0ZM322.4,618.19c-24.23.35-207.09,0-207.09,0v-14.75c0-2.81.98-15.8,11.51-29.14,10.53-13.34,149.22-184.92,149.22-184.92H122.5v-47.05h221.32v10.07c0,3.86.35,20.36-13.69,37.22-14.04,16.85-147.47,184.34-147.47,184.34h161.16v17.91c0,7.02,2.81,25.98-21.42,26.33ZM572.16,618.35s-3.28.2-23.41,0c-20.13-.2-21.07-19-21.07-19-42.6,33.71-102.53,18.73-132.49-3.75-29.96-22.47-52.43-76.31-31.83-123.59,20.6-47.28,60.86-68.82,100.18-68.82s65.54,21.54,65.54,21.54v-15.45h43.07v209.07ZM657.36,619.11h-31.68c-8.29,0-15.02-6.72-15.02-15.02v-261.76h46.7v276.77ZM799.39,620.88c-60.37,0-109.3-48.94-109.3-109.3s48.94-109.3,109.3-109.3,109.3,48.94,109.3,109.3-48.94,109.3-109.3,109.3Z"/>
</svg>