<?xml version="1.0" encoding="UTF-8"?>
<svg version="1.1" xmlns="http://www.w3.org/2000/svg" width="1698" height="653">
<path d="M0 0 C3.48533503 2.85937687 6.78470258 5.84081597 10 9 C10.62519531 9.61230469 11.25039063 10.22460938 11.89453125 10.85546875 C29.01522956 28.9809936 32.31699203 53.02745763 32.2746582 76.91259766 C32.27901705 78.56019825 32.28420406 80.20779682 32.29014587 81.85539246 C32.30341624 86.28706926 32.30412839 90.71866018 32.30158257 95.15035295 C32.30050539 98.86549691 32.30541483 102.58062402 32.310188 106.29576433 C32.32124024 115.06437681 32.32174382 123.83294644 32.31567383 132.6015625 C32.30962753 141.61869965 32.32197155 150.63568103 32.3432439 159.65279162 C32.36090193 167.42645556 32.36685493 175.20007009 32.36360615 182.97375333 C32.36180098 187.60289279 32.36435314 192.23192091 32.37832069 196.86104202 C32.39096435 201.21310026 32.38889365 205.56491636 32.37590981 209.91697121 C32.37355923 211.50515007 32.3762236 213.09334634 32.38453293 214.6815052 C32.46064013 230.36981578 30.24572926 243.42822697 19.25 255.3125 C9.9641142 264.10124469 -1.51415659 266.62524976 -13.98828125 266.3125 C-24.83925976 265.69901712 -34.53957757 260.00013894 -41.8125 252.125 C-48.1509306 244.42204615 -51.25578224 235.92103945 -51.24050903 225.8941803 C-51.24307231 224.87452963 -51.24307231 224.87452963 -51.24568737 223.83427995 C-51.2489595 221.57568911 -51.23801662 219.31740097 -51.22705078 217.05883789 C-51.22648617 215.43221036 -51.2268042 213.80558232 -51.22793579 212.17895508 C-51.22850837 207.77657247 -51.21676942 203.3742994 -51.20278788 198.97194219 C-51.1902647 194.36618308 -51.18910877 189.76042133 -51.18673706 185.15464783 C-51.18052696 176.43898724 -51.16412249 167.72337698 -51.14403808 159.00773853 C-51.12166447 149.08274187 -51.11068197 139.15774278 -51.10064721 129.23272717 C-51.07975585 108.82179006 -51.044589 88.4108982 -51 68 C-52.25357277 69.09138418 -53.50634333 70.18368983 -54.75878906 71.27636719 C-55.45651428 71.88454285 -56.1542395 72.49271851 -56.87310791 73.11932373 C-60.23356758 76.09076586 -63.49065834 79.16858767 -66.75 82.25 C-73.4495214 88.55708081 -80.20304042 94.79812306 -87 101 C-88.97971935 102.81190208 -90.95904849 104.62421515 -92.9375 106.4375 C-93.43096924 106.88971924 -93.92443848 107.34193848 -94.43286133 107.80786133 C-100.30263617 113.18999627 -106.15099793 118.59531382 -112 124 C-118.81626302 130.29846975 -125.63829457 136.59025261 -132.48291016 142.85791016 C-138.33774134 148.22148052 -144.16830321 153.61130451 -150 159 C-156.81626302 165.29846975 -163.63829457 171.59025261 -170.48291016 177.85791016 C-175.78859486 182.71841122 -181.07398724 187.60080912 -186.35888672 192.48388672 C-189.61239388 195.48958138 -192.86763876 198.49339394 -196.12255859 201.49755859 C-198.84399973 204.00946922 -201.56501749 206.52183529 -204.28515625 209.03515625 C-210.00708317 214.32112683 -215.73783427 219.59710804 -221.48291016 224.85791016 C-227.33774134 230.22148052 -233.16830321 235.61130451 -239 241 C-245.81626302 247.29846975 -252.63829457 253.59025261 -259.48291016 259.85791016 C-264.77101331 264.70230489 -270.03883442 269.56857651 -275.30615234 274.43554688 C-277.09530539 276.08802493 -278.88543029 277.73944493 -280.67578125 279.390625 C-281.27398682 279.94242432 -281.87219238 280.49422363 -282.48852539 281.06274414 C-283.64252775 282.12717736 -284.79665716 283.19147287 -285.95092773 284.25561523 C-288.50751997 286.59416372 -288.50751997 286.59416372 -291 289 C-289.92307923 289.00331015 -288.84615847 289.00662029 -287.73660374 289.01003075 C-261.47659136 289.09119187 -235.21663637 289.18355779 -208.95670414 289.28752708 C-196.25736241 289.33755006 -183.55802681 289.38399382 -170.85864258 289.421875 C-159.78389094 289.45491927 -148.70918831 289.49481832 -137.63449091 289.54279006 C-131.77597852 289.56793192 -125.91749812 289.58974891 -120.05894661 289.60334396 C-114.53255269 289.61627688 -109.00626918 289.63844958 -103.4799366 289.66738319 C-101.4633301 289.67637198 -99.44670587 289.68212856 -97.43008041 289.68421364 C-82.62613942 289.70224409 -67.4540796 289.88348469 -53.125 294.0625 C-52.39506836 294.27237549 -51.66513672 294.48225098 -50.91308594 294.69848633 C-21.14270983 303.77458887 3.46385045 324.1528529 18.1875 351.46875 C30.26636209 375.00170545 32.31958178 397.7672628 32.30078125 423.70703125 C32.30467801 425.96709775 32.30901466 428.22716353 32.31376648 430.48722839 C32.32117853 435.19455353 32.32097227 439.90180357 32.31567383 444.60913086 C32.30985868 450.61852363 32.32688407 456.62761025 32.3500185 462.6369524 C32.36479216 467.29285962 32.36562305 471.94869347 32.36250877 476.60461998 C32.36301926 478.8200307 32.36820527 481.03544582 32.37832069 483.25083351 C32.39075095 486.35077224 32.38385605 489.45011855 32.37231445 492.55004883 C32.37995819 493.44849014 32.38760193 494.34693146 32.39547729 495.27259827 C32.29430299 507.65784432 28.39901842 518.9767316 19.98046875 528.11328125 C11.31565835 536.36792311 0.29509438 540.43931478 -11.671875 540.2109375 C-23.75927803 539.11577011 -33.83111698 534.11938419 -42.17578125 525.3515625 C-47.23888291 518.82482331 -51.10924782 511.03340135 -51.13803101 502.682724 C-51.14621101 501.39833435 -51.14621101 501.39833435 -51.15455627 500.08799744 C-51.1555986 499.15653397 -51.15664093 498.2250705 -51.15771484 497.26538086 C-51.16279556 496.27784821 -51.16787628 495.29031555 -51.17311096 494.27285767 C-51.18380954 492.12795332 -51.19243173 489.98303785 -51.19923019 487.8381176 C-51.21103616 484.43641754 -51.23049568 481.03484347 -51.25234985 477.63319397 C-51.31389349 467.96099074 -51.36791061 458.28879945 -51.40136719 448.61645508 C-51.4223877 442.69839766 -51.45775424 436.78056865 -51.50212479 430.86264229 C-51.51623084 428.61377221 -51.52499495 426.3648617 -51.52817917 424.11594963 C-51.53312322 420.95718612 -51.55637258 417.79902136 -51.58349609 414.64038086 C-51.58048996 413.72308701 -51.57748383 412.80579315 -51.5743866 411.86070251 C-51.70596323 401.47026926 -54.10679216 391.98242804 -61 384 C-69.98912211 375.49476438 -80.18220665 373.84395629 -92.1557312 373.86869812 C-93.52468637 373.86552455 -93.52468637 373.86552455 -94.92129719 373.86228687 C-97.97472457 373.85630295 -101.02811044 373.85728589 -104.08154297 373.8581543 C-106.27318898 373.85512161 -108.46483437 373.85159985 -110.65647888 373.84762573 C-115.3757929 373.83974275 -120.09509937 373.83459398 -124.81441879 373.83133507 C-132.28801524 373.82541482 -139.76156431 373.80886325 -147.23513794 373.78999329 C-149.79652974 373.78365589 -152.35792157 373.77733027 -154.91931343 373.77101612 C-156.20210316 373.76785031 -157.48489289 373.7646845 -158.80655503 373.76142275 C-165.43906798 373.74540048 -172.07158343 373.73072271 -178.70410156 373.71704102 C-179.36939991 373.71566514 -180.03469826 373.71428927 -180.72015716 373.71287171 C-191.4789643 373.69098544 -202.23775967 373.68019565 -212.99658512 373.67267027 C-224.06650702 373.66457107 -235.1363259 373.64092732 -246.20619118 373.6047166 C-252.41171742 373.5850152 -258.61706852 373.57253166 -264.82262802 373.57755089 C-270.6684555 373.58222146 -276.51395181 373.56826074 -282.3597126 373.54053879 C-284.49446208 373.53366696 -286.6292461 373.53345676 -288.76399422 373.54073906 C-304.08723689 373.58769437 -318.6471629 372.64143272 -332.4375 365.1875 C-333.0987085 364.84348145 -333.75991699 364.49946289 -334.44116211 364.14501953 C-339.76287162 361.30024075 -344.44776101 357.9630139 -349 354 C-349.58652344 353.55527344 -350.17304688 353.11054688 -350.77734375 352.65234375 C-366.31537636 340.56720727 -374.82018603 319.75863034 -377.75 300.8125 C-379.33218802 276.68413273 -373.25207803 254.06384773 -357.25048828 235.59106445 C-353.67071946 231.59246389 -349.85819201 227.95302271 -345.796875 224.44140625 C-342.28544305 221.37625965 -338.89630477 218.19153006 -335.5 215 C-331.36708675 211.12756878 -327.22397443 207.27341716 -323 203.5 C-318.15681666 199.17170659 -313.41667626 194.73776298 -308.67456055 190.29956055 C-302.8211666 184.82404299 -296.91771318 179.40591096 -291 174 C-289.02006088 172.18834256 -287.04107092 170.37565154 -285.0625 168.5625 C-284.56911133 168.11036133 -284.07572266 167.65822266 -283.56738281 167.19238281 C-277.69756254 161.81012711 -271.84908666 156.40476435 -266 151 C-259.18373698 144.70153025 -252.36170543 138.40974739 -245.51708984 132.14208984 C-239.66225866 126.77851948 -233.83169679 121.38869549 -228 116 C-221.18373698 109.70153025 -214.36170543 103.40974739 -207.51708984 97.14208984 C-201.66225866 91.77851948 -195.83169679 86.38869549 -190 81 C-183.18373698 74.70153025 -176.36170543 68.40974739 -169.51708984 62.14208984 C-163.66225866 56.77851948 -157.83169679 51.38869549 -152 46 C-145.18525983 39.70293742 -138.36542682 33.41181082 -131.52148438 27.14648438 C-128.37165107 24.26155163 -125.22968773 21.36831404 -122.09399414 18.46801758 C-120.99163753 17.44949531 -119.88796201 16.4323986 -118.78295898 15.41674805 C-116.2402017 13.07908246 -113.7178148 10.72894323 -111.2265625 8.3359375 C-80.38740979 -20.87534204 -34.51672491 -26.51776478 0 0 Z " fill="#FF632C" transform="translate(387,95)"/>
<path d="M0 0 C0.65613281 0.53238281 1.31226563 1.06476562 1.98828125 1.61328125 C2.92607422 2.36544922 2.92607422 2.36544922 3.8828125 3.1328125 C9.93412946 8.551312 14.48282446 16.59741842 15.98828125 24.61328125 C16.07994172 27.22521779 16.11882539 29.80973938 16.10853577 32.42132568 C16.10939019 33.21286899 16.11024462 34.00441229 16.11112493 34.81994176 C16.11277326 37.47471069 16.10726892 40.12941657 16.10180664 42.78417969 C16.1015246 44.68622333 16.10168283 46.58826709 16.10224915 48.49031067 C16.10253647 53.6572739 16.09665011 58.82421399 16.08967519 63.99117184 C16.08343097 69.38972291 16.082837 74.78827449 16.08164978 80.18682861 C16.07853963 90.41129029 16.07033047 100.63574129 16.06030029 110.86019826 C16.04912938 122.49972955 16.04362623 134.13926135 16.03860486 145.77879667 C16.02814761 169.72363079 16.01055425 193.66845542 15.98828125 217.61328125 C16.56675654 217.61051587 17.14523184 217.60775049 17.74123669 217.60490131 C31.91872141 217.53819597 46.09618215 217.4887866 60.27379131 217.45784473 C67.13042072 217.4424778 73.9869444 217.42158721 80.84350586 217.38696289 C87.47658329 217.35348354 94.10958084 217.33636256 100.74274635 217.32864952 C103.25692267 217.32316206 105.77109391 217.31244894 108.28522301 217.29609108 C127.02625037 217.17914961 145.68638281 217.79589121 163.73828125 223.36328125 C164.5991333 223.62077148 165.45998535 223.87826172 166.34692383 224.14355469 C189.80911318 231.3586922 210.63171862 242.80158855 228.6875 259.50390625 C230.75960765 261.40363143 232.88669256 263.19554506 235.05078125 264.98828125 C240.0121097 269.32197177 243.95537719 274.42910373 247.98828125 279.61328125 C248.73207031 280.54140625 249.47585938 281.46953125 250.2421875 282.42578125 C262.60468916 298.24978338 271.62654065 316.76060892 277.30078125 335.98828125 C277.53112061 336.75229248 277.76145996 337.51630371 277.9987793 338.3034668 C282.54089441 354.66008171 283.43511993 371.29555772 283.39233398 388.17016602 C283.39805419 390.24391544 283.40502473 392.31766173 283.41313171 394.3914032 C283.43088343 399.95694209 283.42993063 405.52232182 283.42418933 411.08788037 C283.42107517 415.75281952 283.42721356 420.41772905 283.43322808 425.08266395 C283.44720871 436.08646634 283.4457625 447.09019095 283.43432617 458.09399414 C283.42281492 469.41980792 283.43698584 480.74538573 283.46372265 492.07116848 C283.48589856 501.83303853 283.49251381 511.59483458 283.48664623 521.35672802 C283.48328442 527.17121645 283.48564192 532.98555317 283.50289726 538.80002022 C283.51839754 544.25942094 283.51437654 549.71847131 283.49559212 555.17785835 C283.49191671 557.17443781 283.49498396 559.17104346 283.50547791 561.16759872 C283.57972774 576.46702338 281.9870516 588.80363269 271.2109375 600.55078125 C261.45218554 609.81061951 250.2990784 612.12504609 237.3203125 611.8828125 C226.9556821 611.42729833 218.57953562 606.47370057 210.98828125 599.61328125 C202.57056175 589.93597599 199.82799 579.93059915 199.85697937 567.25479126 C199.8538058 566.01446799 199.8538058 566.01446799 199.85056812 564.74908769 C199.84458994 561.98586925 199.84556673 559.22269677 199.84643555 556.45947266 C199.84340246 554.47472049 199.83988059 552.48996901 199.83590698 550.50521851 C199.82802676 546.23280383 199.82287626 541.96039748 199.81961632 537.68797684 C199.81369268 530.92008172 199.79713768 524.15223883 199.77827454 517.3843689 C199.77193719 515.06410411 199.76561157 512.7438393 199.75929737 510.42357445 C199.75454865 508.68055805 199.75454865 508.68055805 199.749704 506.90232921 C199.70769693 491.15120408 199.67467832 475.40010318 199.66235352 459.64892578 C199.65395008 449.01835181 199.63137344 438.38790724 199.59299785 427.75739801 C199.57331094 422.13872614 199.560808 416.52024738 199.56583214 410.90153885 C199.57050841 405.60725919 199.55651162 400.31334451 199.52882004 395.01913834 C199.52195761 393.08757221 199.52172765 391.15596793 199.52902031 389.22440338 C199.61196401 364.76436824 193.26641516 343.09418214 176.23046875 324.765625 C159.52392654 308.7285087 138.79411368 301.53747252 116.00415039 301.40795898 C114.92048187 301.39805939 113.83681335 301.38815979 112.7203064 301.37796021 C109.15470531 301.34648802 105.58909092 301.3216444 102.0234375 301.296875 C99.54479129 301.27629314 97.06614849 301.25529634 94.58750916 301.23390198 C88.07578299 301.17880862 81.56402581 301.1293433 75.05224609 301.08105469 C68.40263781 301.03125534 61.75308096 300.97510914 55.10351562 300.91992188 C42.06514274 300.81249613 29.02673154 300.71083568 15.98828125 300.61328125 C15.99017985 301.19870042 15.99207845 301.78411959 15.99403459 302.38727874 C16.106031 337.11757889 16.1917675 371.84784287 16.2436079 406.57828538 C16.2498611 410.75246725 16.25633275 414.92664875 16.26293945 419.10083008 C16.26425101 419.93180156 16.26556256 420.76277305 16.26691385 421.61892549 C16.28864457 435.05734192 16.32805316 448.49565093 16.37404523 461.93400373 C16.42087496 475.73264123 16.44859039 489.53122263 16.45872372 503.32993633 C16.46556941 511.83808835 16.48715639 520.34593668 16.52786358 528.85399518 C16.55438252 534.6957419 16.56226166 540.53733262 16.55578814 546.37913509 C16.55259924 549.74503894 16.56010646 553.10998929 16.58430862 556.47587013 C16.79814029 587.756972 16.79814029 587.756972 4.38671875 600.45703125 C-5.39137614 609.24776151 -15.34743114 613.02417332 -28.46484375 612.890625 C-40.3818471 611.95878883 -50.03034202 606.96491316 -58.26171875 598.48828125 C-63.9768801 591.76925922 -68.13086568 582.53656881 -68.14051992 573.59726715 C-68.14542821 572.40367613 -68.14542821 572.40367613 -68.15043566 571.18597215 C-68.14895203 570.31591604 -68.14746841 569.44585993 -68.14593983 568.54943848 C-68.14829206 567.61812436 -68.15064429 566.68681024 -68.1530678 565.72727448 C-68.15976446 562.58314537 -68.15929937 559.43905752 -68.15888977 556.29492188 C-68.16218798 554.02725632 -68.16591346 551.75959136 -68.17003125 549.49192715 C-68.18006428 543.24186386 -68.18377014 536.99181019 -68.18642056 530.74173999 C-68.18991964 524.6990426 -68.19806659 518.6563525 -68.2059645 512.6136597 C-68.22681279 496.42048214 -68.23727958 480.22730274 -68.2460941 464.03411489 C-68.25030035 456.37342491 -68.25552239 448.71273572 -68.26077863 441.05204641 C-68.27866978 414.82872102 -68.29366551 388.6053954 -68.30109882 362.38206482 C-68.30157358 360.73560566 -68.30204947 359.08914649 -68.30252649 357.44268733 C-68.30276286 356.62619054 -68.30299924 355.80969375 -68.30324278 354.96845463 C-68.30444398 350.83167157 -68.30565943 346.69488852 -68.30688477 342.55810547 C-68.30724499 341.32666896 -68.30724499 341.32666896 -68.30761249 340.07035495 C-68.31550439 313.45644616 -68.33893347 286.84258195 -68.37144071 260.22869262 C-68.40574593 232.09140019 -68.42545064 203.95413384 -68.42874306 175.81682014 C-68.4291606 172.7273267 -68.42964016 169.63783327 -68.43016624 166.54833984 C-68.43028944 165.78761901 -68.43041263 165.02689817 -68.43053955 164.24312519 C-68.43287079 152.00536819 -68.4485266 139.767663 -68.46900809 127.52992446 C-68.48927372 115.22583013 -68.49473992 102.92179796 -68.48523746 90.61769003 C-68.48048358 83.9530001 -68.48262231 77.28844271 -68.5019989 70.62376595 C-68.51959004 64.52050677 -68.51866538 58.41753879 -68.50310161 52.3142767 C-68.50071941 50.10827188 -68.50508067 47.90224712 -68.51693026 45.69627285 C-68.6012831 28.95342447 -67.29232599 15.64553666 -55.35546875 2.8359375 C-39.99762878 -11.39904153 -16.79714689 -12.37522888 0 0 Z " fill="#FF632C" transform="translate(1016.01171875,22.38671875)"/>
<path d="M0 0 C8.95153426 6.37336428 14.26044075 14.77939661 17.25 25.25 C17.42835126 27.96948042 17.51208401 30.58218009 17.49050903 33.29855347 C17.49221788 34.09180562 17.49392673 34.88505778 17.49568737 35.70234787 C17.49897232 38.35097459 17.48799502 40.99934598 17.47705078 43.64794922 C17.47648645 45.55028782 17.47680365 47.45262686 17.47793579 49.35496521 C17.47850946 54.51357452 17.46675282 59.67209077 17.45278788 64.83067846 C17.44028289 70.22387565 17.4391102 75.61707498 17.43673706 81.01028442 C17.43052162 91.22052855 17.4141099 101.43072983 17.39403808 111.64095509 C17.37168111 123.26601821 17.36068615 134.89108337 17.35064721 146.51616263 C17.32974375 170.42746551 17.29456649 194.33873035 17.25 218.25 C18.69460602 218.23667633 18.69460602 218.23667633 20.168396 218.2230835 C29.28860035 218.14164613 38.40872997 218.08186703 47.52921677 218.04275131 C52.21706159 218.02196474 56.90461055 217.99381238 61.59228516 217.94824219 C66.12458412 217.90446316 70.65660029 217.88079591 75.18909454 217.87049103 C76.90969538 217.86315673 78.6302825 217.84883613 80.35076141 217.82707977 C95.43585691 217.64408 107.68507111 219.6321204 119.25 230.25 C128.9296883 241.55771631 131.04708263 252.67692332 130.25 267.25 C128.54607745 278.52090055 121.89040883 287.87983663 112.87890625 294.59375 C108.87994205 297.11315687 104.75501282 298.85107497 100.25 300.25 C99.70301453 300.42691879 99.15602905 300.60383759 98.59246826 300.78611755 C95.24917295 301.44819526 91.93737804 301.38036906 88.54394531 301.36352539 C87.77282913 301.36367142 87.00171295 301.36381744 86.20722961 301.3639679 C83.6641659 301.36327249 81.12117588 301.35549749 78.578125 301.34765625 C76.81264282 301.34579075 75.04716013 301.34436747 73.28167725 301.34336853 C68.63908454 301.33955375 63.9965232 301.32973232 59.35394287 301.31866455 C54.61487248 301.3084281 49.87579701 301.30386612 45.13671875 301.29882812 C35.84113206 301.28810913 26.54556864 301.27104517 17.25 301.25 C17.25227832 302.12926792 17.25227832 302.12926792 17.25460267 303.02629882 C17.34417014 337.7898882 17.41277408 372.55345448 17.45426132 407.31713479 C17.45926397 411.49389409 17.46444128 415.67065316 17.46972656 419.84741211 C17.4707758 420.67890822 17.47182505 421.51040432 17.47290608 422.36709728 C17.49029786 435.81977728 17.52182877 449.27238871 17.55861118 462.72502808 C17.59605479 476.53495846 17.61824308 490.344853 17.62635398 504.15483207 C17.63183467 512.67215484 17.64912716 521.18928378 17.68166587 529.70654687 C17.70285601 535.55200485 17.7091899 541.39736303 17.70400551 547.2428566 C17.70145063 550.61244568 17.70749451 553.98142501 17.7268219 557.35099983 C17.74679181 561.01269438 17.74191258 564.67356687 17.73101807 568.33528137 C17.74266943 569.38881469 17.7543208 570.44234801 17.76632524 571.52780658 C17.66661407 583.96972621 13.18629701 593.21954512 4.5234375 602 C-4.86420107 610.57318591 -15.93443604 612.959099 -28.38671875 612.6171875 C-39.72856107 611.91869448 -48.27585958 606.55008709 -55.75 598.25 C-64.1498332 587.76800476 -65.90672109 577.25458781 -65.87025452 564.12637329 C-65.87110894 563.0023534 -65.87196337 561.8783335 -65.87284368 560.72025239 C-65.87449134 556.95232004 -65.86898875 553.18443216 -65.86352539 549.41650391 C-65.86324334 546.71614481 -65.86335757 544.01578845 -65.8639679 541.31542969 C-65.86449185 535.50092737 -65.86135842 529.68643629 -65.85573006 523.8719368 C-65.84759772 515.46518152 -65.84499806 507.05843167 -65.84374207 498.65167288 C-65.84155428 485.01175671 -65.83490158 471.37184652 -65.82543945 457.73193359 C-65.81625828 444.48323598 -65.8091809 431.23454 -65.80493164 417.98583984 C-65.80466892 417.1689794 -65.80440619 416.35211895 -65.80413551 415.51050515 C-65.80283046 411.41249345 -65.80156675 407.31448173 -65.80032361 403.21647 C-65.78995949 369.22764233 -65.77234858 335.2388219 -65.75 301.25 C-67.18247574 301.25999275 -67.18247574 301.25999275 -68.64389038 301.27018738 C-77.67645093 301.33119904 -86.70896926 301.37606848 -95.74168968 301.40543652 C-100.38468438 301.42104287 -105.02751174 301.44218844 -109.67041016 301.47631836 C-114.15730035 301.50909226 -118.64403031 301.52689079 -123.13103104 301.53463173 C-124.8365188 301.54014305 -126.54199854 301.55090474 -128.24741745 301.56719017 C-142.59119422 301.69862224 -155.04743768 300.35238561 -166.015625 290.140625 C-170.22643896 285.61789889 -173.49730736 281.01555491 -175.75 275.25 C-176.10578125 274.37214844 -176.4615625 273.49429687 -176.828125 272.58984375 C-179.37843056 263.35038928 -179.30834562 251.02508297 -175.0078125 242.37890625 C-174.38519531 241.32509766 -174.38519531 241.32509766 -173.75 240.25 C-173.31429687 239.47527344 -172.87859375 238.70054687 -172.4296875 237.90234375 C-166.17558616 227.66680632 -157.51896838 221.52126271 -145.94975281 218.68153763 C-142.53381979 218.01141523 -139.14657213 217.98738694 -135.68164062 218.02294922 C-134.53872055 218.02251114 -134.53872055 218.02251114 -133.37271118 218.02206421 C-130.88377011 218.02344443 -128.39513801 218.0389431 -125.90625 218.0546875 C-124.16890629 218.0584223 -122.43156045 218.06126706 -120.69421387 218.06326294 C-116.14369794 218.07086268 -111.59331172 218.09047936 -107.04284668 218.1126709 C-102.39056146 218.13320854 -97.73825508 218.14228152 -93.0859375 218.15234375 C-83.97390166 218.17372901 -74.86196166 218.20782031 -65.75 218.25 C-65.75276538 217.29215984 -65.75553076 216.33431969 -65.75837994 215.34745407 C-65.82506389 192.01008285 -65.87431773 168.67272403 -65.90543652 145.33527756 C-65.92088643 134.04933022 -65.94194005 122.76344593 -65.97631836 111.47753906 C-66.00627818 101.63744477 -66.02558863 91.79739615 -66.03226548 81.95725751 C-66.03616659 76.74997886 -66.04529556 71.54283084 -66.06719017 66.33559418 C-66.08765938 61.42726898 -66.09381281 56.51912738 -66.08932304 51.61076355 C-66.0901436 49.81617991 -66.09604674 48.02158968 -66.10761642 46.22704315 C-66.20478242 30.36853909 -64.78569898 16.52554641 -53.375 4.4375 C-38.28645861 -9.59451333 -17.32313499 -10.65591161 0 0 Z " fill="#FF632C" transform="translate(766.75,21.75)"/>
<path d="M0 0 C0.87714708 -0.00367669 1.75429416 -0.00735338 2.65802145 -0.01114148 C5.59717488 -0.02215422 8.53629292 -0.0260181 11.47546387 -0.02983093 C13.58316154 -0.0360975 15.6908581 -0.04274447 17.79855347 -0.04974365 C24.72144809 -0.07076695 31.64434289 -0.0811458 38.56726074 -0.09111023 C40.95334383 -0.09515871 43.33942679 -0.09927566 45.72550964 -0.10346031 C56.93870661 -0.12250975 68.15189702 -0.13674018 79.36510706 -0.14507228 C92.29326016 -0.15483808 105.22124174 -0.18114162 118.14933443 -0.22157317 C128.15125562 -0.25177578 138.15312777 -0.26654517 148.15509367 -0.26985329 C154.12414889 -0.27219941 160.09302083 -0.28110277 166.06202698 -0.30631447 C171.68289562 -0.32967201 177.30346131 -0.33379747 182.924366 -0.32355309 C184.97976822 -0.32305945 187.03518575 -0.32932861 189.09054184 -0.34310913 C205.37642748 -0.44613154 218.60657453 0.7398493 231.28601074 12.14717102 C240.47256376 21.85046765 242.78590185 32.87210576 242.56335449 45.80732727 C242.08713929 56.74606144 236.43687631 66.45953989 228.59851074 73.89717102 C220.52887329 80.57014045 211.58389618 83.27508333 201.2688446 83.26742554 C200.57445213 83.26827996 199.88005966 83.26913439 199.16462499 83.2700147 C196.84462748 83.271658 194.52470273 83.26616702 192.20471191 83.26069641 C190.53897096 83.26041427 188.87322989 83.26057281 187.20748901 83.26113892 C182.68932325 83.26142582 178.17118403 83.25554632 173.65302444 83.24856496 C168.92980188 83.24231367 164.20657872 83.24172621 159.48335266 83.24053955 C150.54098156 83.23743148 141.59862269 83.22922514 132.65625697 83.21919006 C122.47495793 83.20801267 112.29365829 83.20251437 102.11235464 83.19749463 C81.17023167 83.1870421 60.22812545 83.16870311 39.28601074 83.14717102 C39.28601074 107.23717102 39.28601074 131.32717102 39.28601074 156.14717102 C45.82179932 156.12622375 52.35758789 156.10527649 59.09143066 156.08369446 C80.68874868 156.0174072 102.2860707 155.97302466 123.88346386 155.93992233 C136.97757855 155.91931851 150.0715967 155.89123947 163.16564941 155.84541321 C174.58165898 155.80547885 185.99759861 155.77972237 197.41367608 155.77081704 C203.4554751 155.76561351 209.49707407 155.75342853 215.53880882 155.72425079 C221.23264534 155.69697756 226.92620056 155.68875009 232.62009621 155.6947403 C234.70291297 155.69364538 236.78573974 155.68576294 238.86849976 155.67034912 C255.0460269 155.55655887 269.00114941 156.59027628 281.43835449 168.14717102 C290.39353169 177.48590329 293.71361967 187.8756703 293.55554199 200.60810852 C292.6602116 212.36418582 287.74479355 222.39531967 278.93054199 230.24482727 C269.69653686 237.15932078 260.16769881 239.75549706 248.74902344 239.65510559 C247.6407433 239.66134555 246.53246316 239.66758552 245.39059877 239.67401457 C241.70512414 239.68987237 238.02031752 239.67736802 234.33483887 239.66474915 C231.68112785 239.67017347 229.02746169 239.67715405 226.37376404 239.68598938 C219.93120073 239.70371631 213.48882449 239.69996078 207.04625404 239.68833882 C201.80727415 239.6792817 196.56834645 239.67809031 191.32936096 239.68243408 C190.20817613 239.68335348 190.20817613 239.68335348 189.0643411 239.68429145 C187.545594 239.68557044 186.02684692 239.68686729 184.50809985 239.68818182 C170.28815913 239.69957054 156.06832179 239.68650079 141.84839803 239.66498035 C129.66397631 239.6471109 117.47970706 239.65021549 105.29528809 239.6686554 C91.12401367 239.69009236 76.95282971 239.69847207 62.78154135 239.68620634 C61.26858109 239.68493223 59.75562081 239.68367475 58.24266052 239.68243408 C57.12623875 239.68150843 57.12623875 239.68150843 55.98726299 239.68056408 C50.75845931 239.67711964 45.52971332 239.6829199 40.30091858 239.69235229 C33.92316178 239.70360515 27.54560174 239.7004636 21.1678673 239.67922932 C17.91777217 239.66876268 14.66806965 239.66669776 11.41796684 239.67782593 C7.88598703 239.68880194 4.35492014 239.67499141 0.82299805 239.65510559 C-0.19190437 239.66402848 -1.20680678 239.67295136 -2.25246382 239.68214464 C-14.17995433 239.55242596 -23.88515649 235.06977834 -32.71398926 227.14717102 C-43.11715591 215.85616454 -44.31324633 202.05179514 -44.21569824 187.42402649 C-44.21949046 185.7848006 -44.22499789 184.14557793 -44.23207092 182.50636292 C-44.24592299 178.09317291 -44.23492956 173.68037725 -44.21835971 169.26720953 C-44.20441126 164.62792062 -44.21098018 159.98865234 -44.2144928 155.34934998 C-44.21718669 147.56395687 -44.2037884 139.77871866 -44.18054199 131.99336243 C-44.15391875 123.01540408 -44.1521942 114.03770424 -44.16393036 105.05971992 C-44.17473872 96.39017894 -44.16849831 87.7207307 -44.15437508 79.05119705 C-44.14864365 75.3760316 -44.14867539 71.70093466 -44.15344048 68.02576828 C-44.15824065 63.69339571 -44.14798379 59.36130342 -44.12648582 55.02898407 C-44.12095965 53.44684672 -44.12041392 51.8646822 -44.12543869 50.28254318 C-44.16710224 35.27310451 -41.88676507 22.99395471 -31.71398926 11.45967102 C-22.91887294 3.15755449 -11.76214887 -0.00265418 0 0 Z " fill="#FF632C" transform="translate(1395.7139892578125,394.8528289794922)"/>
<path d="M0 0 C1.41777106 -0.00668677 1.41777106 -0.00668677 2.86418396 -0.01350862 C4.41712242 -0.01323207 4.41712242 -0.01323207 6.00143337 -0.01294994 C7.10373254 -0.01662663 8.2060317 -0.02030332 9.34173387 -0.02409142 C13.04873453 -0.03513622 16.75570717 -0.03897348 20.46272182 -0.04278088 C23.11538262 -0.04904496 25.76804042 -0.05567893 28.42069912 -0.0626936 C36.39097082 -0.08244496 44.36124377 -0.09252301 52.33153382 -0.10142139 C56.08726897 -0.10580689 59.84300272 -0.11117306 63.59873676 -0.11641026 C76.08810699 -0.13342202 88.57747635 -0.14791506 101.06685638 -0.155159 C104.30704722 -0.15706881 107.54723805 -0.15898916 110.78742886 -0.16094494 C111.59273804 -0.16142868 112.39804722 -0.16191242 113.22775971 -0.16241082 C126.26633531 -0.17070692 139.30481903 -0.19603695 152.34335453 -0.22852562 C165.73757311 -0.2616277 179.13174505 -0.27961064 192.52600473 -0.28280324 C200.04318211 -0.28496554 207.56022557 -0.29367292 215.07736301 -0.31926441 C221.48087949 -0.3410146 227.88422951 -0.34900074 234.28777874 -0.33929763 C237.55202247 -0.33476516 240.8158528 -0.33877734 244.08006382 -0.35605907 C247.62770873 -0.37378686 251.17449043 -0.36666628 254.7221365 -0.35352612 C255.74181375 -0.36449536 256.761491 -0.37546461 257.81206757 -0.38676625 C268.42024607 -0.29228386 278.19206655 3.20894802 286.30622768 10.13422108 C296.09561878 20.20231369 299.6729879 30.95341432 299.51716518 44.79047108 C298.82585781 55.74897312 293.41416864 66.0511812 285.41560268 73.53656483 C275.02739648 81.40466915 264.00409737 83.44339125 251.32018948 83.39491749 C249.71039352 83.40065581 249.71039352 83.40065581 248.06807643 83.40651006 C244.48945067 83.41678864 240.91098689 83.41285764 237.33235073 83.40887928 C234.75939187 83.41322861 232.18643431 83.4184125 229.61347866 83.42436695 C223.36018889 83.43708581 217.10694212 83.43891113 210.85364159 83.43656669 C205.7676652 83.43478006 200.68170181 83.43654054 195.59572697 83.44079113 C194.50787308 83.44168391 194.50787308 83.44168391 193.39804235 83.44259473 C191.92447393 83.44380655 190.45090552 83.44502068 188.9773371 83.44623711 C175.17230424 83.457102 161.36729584 83.45495525 147.56226162 83.44885226 C134.95148334 83.44368515 122.34078235 83.45493499 109.73001935 83.47395048 C96.76164687 83.49335432 83.7933109 83.50158035 70.82492381 83.49782723 C63.55206623 83.4959189 56.27927441 83.49836662 49.00642872 83.51254177 C42.16505312 83.52574168 35.32383431 83.52316103 28.48245907 83.51013088 C25.97673967 83.50776892 23.47100934 83.5104861 20.96530247 83.51875401 C17.53442958 83.52925513 14.10407167 83.52109331 10.67321682 83.50844288 C9.69099059 83.51581716 8.70876437 83.52319145 7.69677371 83.5307892 C-5.37746466 83.4299625 -16.63672327 79.80766771 -26.44377232 71.00922108 C-34.79117322 62.10927354 -38.26907748 50.28240436 -37.99845982 38.34515858 C-36.90565111 26.82863606 -32.11016062 17.20890823 -23.71330357 9.25922108 C-16.91379641 3.83047285 -8.77189831 0.01923275 0 0 Z " fill="#FF632C" transform="translate(1389.693772315979,239.86577892303467)"/>
<path d="M0 0 C1.23957962 0.83898377 2.46967463 1.69223983 3.6875 2.5625 C4.698125 3.26375 5.70875 3.965 6.75 4.6875 C13.9225517 10.88019491 19.200723 21.26691165 20.6875 30.5625 C21.67857173 46.30591807 19.15511076 58.25327883 8.9453125 70.68359375 C1.58468807 78.76195542 -9.35404097 84.34231874 -20.36328125 84.86328125 C-21.78372605 84.88275522 -23.20446616 84.88623713 -24.625 84.875 C-25.37338135 84.86936035 -26.1217627 84.8637207 -26.89282227 84.85791016 C-39.35163087 84.58551278 -50.46003912 79.41496088 -59.3125 70.5625 C-69.01541296 57.61817436 -71.88918118 45.47360631 -70.3125 29.5625 C-68.1233883 17.28979256 -60.72896031 7.61609974 -50.90625 0.21875 C-35.47868843 -9.6325845 -15.48781116 -9.16507177 0 0 Z " fill="#FF632C" transform="translate(524.3125,389.4375)"/>
</svg>
