<svg width="20" height="20" viewBox="0 0 20 20" fill="none" xmlns="http://www.w3.org/2000/svg">
<path d="M9.99936 1.66992C5.39936 1.66992 1.66602 5.40325 1.66602 10.0032C1.66602 14.6032 5.39936 18.3365 9.99936 18.3365C14.5993 18.3365 18.3327 14.6032 18.3327 10.0032C18.3327 5.40325 14.5993 1.66992 9.99936 1.66992ZM7.74102 13.5782L4.74936 10.5865C4.42436 10.2615 4.42436 9.73658 4.74936 9.41158C5.07436 9.08658 5.59936 9.08658 5.92436 9.41158L8.33269 11.8115L14.066 6.07825C14.391 5.75325 14.916 5.75325 15.241 6.07825C15.566 6.40325 15.566 6.92825 15.241 7.25325L8.91602 13.5782C8.59936 13.9032 8.06602 13.9032 7.74102 13.5782Z" fill="#1C2C58"/>
</svg>
