<?xml version="1.0" encoding="UTF-8"?>
<svg id="Flag" xmlns="http://www.w3.org/2000/svg" version="1.1" viewBox="0 0 1990 1050">
  <!-- Generator: Adobe Illustrator 29.8.1, SVG Export Plug-In . SVG Version: 2.1.1 Build 2)  -->
  <defs>
    <style>
      .st0 {
        fill: #ce1124;
      }

      .st1 {
        fill: #fff;
      }

      .st2 {
        fill: #00247d;
      }
    </style>
  </defs>
  <g>
    <rect class="st1" y=".1" width="1989.48" height="1048.2"/>
    <polygon class="st0" points="1989.63 419.52 1113.63 419.52 1113.63 .16 874.51 .16 874.51 419.52 .83 419.52 .83 629.09 874.51 629.09 874.51 1048.28 1113.63 1048.28 1113.63 629.09 1989.63 629.09 1989.63 419.52"/>
  </g>
  <g>
    <polygon class="st2" points=".02 122.15 .02 350.38 433.95 350.38 .02 122.15"/>
    <polygon class="st2" points="239.42 .05 233.06 .34 795.72 297.83 795.72 .05 239.42 .05"/>
    <polygon class="st0" points="667.79 348.93 .02 .1 .02 82.32 508.67 348.93 667.79 348.93"/>
    <polygon class="st0" points="1322.21 699.36 1989.99 1048.19 1989.99 965.97 1481.34 699.36 1322.21 699.36"/>
  </g>
  <g>
    <polygon class="st2" points=".02 927.9 .02 699.67 433.95 699.67 .02 927.9"/>
    <polygon class="st2" points="239.42 1050 233.06 1049.71 795.72 752.22 795.72 1050 239.42 1050"/>
    <polygon class="st0" points="664.38 699.34 .46 1048.01 155.73 1048.16 796.36 713.52 796.36 699.34 664.38 699.34"/>
  </g>
  <g>
    <polygon class="st2" points="1990 122.1 1990 350.32 1556.07 350.32 1990 122.1"/>
    <polygon class="st2" points="1750.6 0 1756.96 .29 1194.3 297.78 1194.3 0 1750.6 0"/>
    <polygon class="st0" points="1989.36 .49 1840.01 .48 1194.87 337.48 1194.87 349.3 1331.36 349.3 1989.36 .49"/>
  </g>
  <g>
    <polygon class="st2" points="1990 927.81 1990 699.59 1556.07 699.59 1990 927.81"/>
    <polygon class="st2" points="1750.6 1049.91 1756.96 1049.62 1194.3 752.13 1194.3 1049.91 1750.6 1049.91"/>
  </g>
</svg>